<svg width="40" height="36" viewBox="0 0 40 36" fill="none" xmlns="http://www.w3.org/2000/svg">
<path d="M24.6667 31.2346H22.7667V27.4346H30.5667V33.3346C30.5667 34.4944 31.5069 35.4346 32.6667 35.4346H38C39.1598 35.4346 40.1 34.4944 40.1 33.3346V20.0013C40.1 18.8415 39.1598 17.9013 38 17.9013H37.4333V4.0013V4.00118C37.4311 2.10605 35.8953 0.5702 34.0001 0.567969H34L6 0.567969L5.99988 0.567969C4.10475 0.5702 2.5689 2.10605 2.56667 4.00118V4.0013V13.9013H2C0.840188 13.9013 -0.1 14.8415 -0.1 16.0013V33.3346C-0.1 34.4944 0.840188 35.4346 2 35.4346H27.3333C27.7567 35.4346 28.1 35.0914 28.1 34.668V34.6679C28.0978 32.7727 26.5619 31.2369 24.6668 31.2346H24.6667ZM16.1 33.3346V32.768H24.6665C25.4234 32.7689 26.1028 33.2172 26.4053 33.9013H16.0158C16.0697 33.7177 16.0981 33.5274 16.1 33.3356V33.3346ZM4.1 13.9013V4.0013C4.1 2.95195 4.95065 2.1013 6 2.1013H34C35.0494 2.1013 35.9 2.95195 35.9 4.0013V17.9013H32.6667C31.5069 17.9013 30.5667 18.8415 30.5667 20.0013V20.568H16.1L16.1 16.0013L16.1 16.0006C16.0978 15.6956 16.0284 15.3953 15.8973 15.1207L17.9775 13.0406C18.4053 12.6284 18.8607 12.1818 19.3111 11.7355C20.1507 10.9036 20.974 10.072 21.5714 9.46506C21.87 9.16157 22.1123 8.9142 22.2718 8.75097L22.4459 8.57276L22.4692 8.54881L22.4754 8.54268L22.4754 8.54269L22.4766 8.54145L22.4844 8.53328L22.4864 8.53113C22.4929 8.52303 22.4746 8.3867 22.3448 8.39035L22.3412 8.39368L22.3404 8.39452L22.3372 8.39772L22.327 8.40819L17.8373 12.8979C17.4693 13.2525 17.1219 13.5813 16.8161 13.862C16.4854 14.1656 16.2049 14.4115 15.9996 14.5731C15.8964 14.6543 15.8155 14.7117 15.7584 14.7445C15.7456 14.7518 15.735 14.7573 15.7265 14.7614C15.5785 14.6013 15.5523 14.4754 15.5385 14.4092L15.5379 14.4066C15.5377 14.4054 15.5374 14.404 15.5371 14.4025C15.534 14.3873 15.5286 14.3608 15.5189 14.3402C15.5129 14.3274 15.499 14.3022 15.4693 14.2857C15.4358 14.267 15.4023 14.27 15.3801 14.2768C15.3603 14.2828 15.3446 14.293 15.3348 14.2999C15.324 14.3076 15.3132 14.3167 15.3029 14.3258C15.2963 14.3316 15.2891 14.3382 15.2813 14.3454L14.8933 14.1015C14.8876 14.0969 14.8811 14.0928 14.8741 14.0895L14.8219 14.0566L14.8105 14.0685C14.5545 13.959 14.279 13.9021 14.0003 13.9013H14H4.1ZM14.9295 14.2001L14.9295 14.2L14.9295 14.2001ZM15.6992 14.7715C15.6993 14.7714 15.7003 14.7712 15.7021 14.771C15.7001 14.7715 15.6992 14.7716 15.6992 14.7715ZM22.4823 8.53547C22.483 8.5348 22.4828 8.53495 22.4822 8.53553L22.4823 8.53547ZM14.5667 33.3346C14.5667 33.6476 14.3129 33.9013 14 33.9013H2C1.68706 33.9013 1.43333 33.6476 1.43333 33.3346V32.768H14.5667V33.3346ZM14.5667 31.2346H1.43333V16.0013C1.43333 15.6884 1.68706 15.4346 2 15.4346H14C14.3129 15.4346 14.5667 15.6884 14.5667 16.0013V31.2346ZM16.1 31.2346V27.4346H17.2333V31.2346H16.1ZM18.7667 31.2346V27.4346H21.2333V31.2346H18.7667ZM30.5667 25.9013H16.1V22.1013H30.5667V25.9013ZM38.5667 33.3346C38.5667 33.6476 38.3129 33.9013 38 33.9013H32.6667C32.3537 33.9013 32.1 33.6476 32.1 33.3346V32.768H38.5667V33.3346ZM38.5667 31.2346H32.1V20.0013C32.1 19.6884 32.3537 19.4346 32.6667 19.4346H38C38.3129 19.4346 38.5667 19.6884 38.5667 20.0013V31.2346Z" fill="#3355FF" stroke="#3355FF" stroke-width="0.2"/>
</svg>
